<svg width="32" height="32" viewBox="0 0 32 32" fill="none" xmlns="http://www.w3.org/2000/svg">
<rect width="32" height="32" fill="#17223B"/>
<path d="M11.627 6.51562L16.375 19.9219L21.0977 6.51562H26.0996V25H22.2783V19.9473L22.6592 11.2256L17.6699 25H15.0547L10.0781 11.2383L10.459 19.9473V25H6.65039V6.51562H11.627Z" fill="white"/>
<path d="M19.2354 20.1504C19.2354 19.431 18.9814 18.8809 18.4736 18.5C17.9658 18.1107 17.0518 17.7044 15.7314 17.2812C14.4111 16.8496 13.3659 16.4264 12.5957 16.0117C10.4967 14.8776 9.44727 13.3499 9.44727 11.4287C9.44727 10.43 9.72656 9.54134 10.2852 8.7627C10.8522 7.97559 11.6605 7.36198 12.71 6.92188C13.7679 6.48177 14.9528 6.26172 16.2646 6.26172C17.585 6.26172 18.7614 6.50293 19.7939 6.98535C20.8265 7.45931 21.6263 8.13216 22.1934 9.00391C22.7689 9.87565 23.0566 10.8659 23.0566 11.9746H19.248C19.248 11.1283 18.9814 10.4723 18.4482 10.0068C17.915 9.53288 17.166 9.2959 16.2012 9.2959C15.2702 9.2959 14.5465 9.49479 14.0303 9.89258C13.514 10.2819 13.2559 10.7982 13.2559 11.4414C13.2559 12.0423 13.5563 12.5459 14.1572 12.9521C14.7666 13.3584 15.6595 13.7393 16.8359 14.0947C19.0026 14.7464 20.5811 15.5547 21.5713 16.5195C22.5615 17.4844 23.0566 18.6862 23.0566 20.125C23.0566 21.7246 22.4515 22.9814 21.2412 23.8955C20.0309 24.8011 18.4017 25.2539 16.3535 25.2539C14.9316 25.2539 13.6367 24.9958 12.4688 24.4795C11.3008 23.9548 10.4079 23.2396 9.79004 22.334C9.18066 21.4284 8.87598 20.3789 8.87598 19.1855H12.6973C12.6973 21.2253 13.916 22.2451 16.3535 22.2451C17.2591 22.2451 17.9658 22.0632 18.4736 21.6992C18.9814 21.3268 19.2354 20.8105 19.2354 20.1504Z" fill="#FF5733" fill-opacity="0.71"/>
</svg>
