<svg width="500" height="500" viewBox="0 0 500 500" fill="none" xmlns="http://www.w3.org/2000/svg">
<rect width="500" height="500" fill="#C4C4C4"/>
<path d="M315.222 131H183.778C173.407 131 165 139.407 165 149.778V281.222C165 291.593 173.407 300 183.778 300H315.222C325.593 300 334 291.593 334 281.222V149.778C334 139.407 325.593 131 315.222 131Z" stroke="black" stroke-width="2" stroke-linecap="round" stroke-linejoin="round"/>
<path d="M216.639 196.722C224.417 196.722 230.722 190.417 230.722 182.639C230.722 174.861 224.417 168.556 216.639 168.556C208.861 168.556 202.556 174.861 202.556 182.639C202.556 190.417 208.861 196.722 216.639 196.722Z" stroke="black" stroke-width="2" stroke-linecap="round" stroke-linejoin="round"/>
<path d="M334 243.667L287.056 196.722L183.778 300" stroke="black" stroke-width="2" stroke-linecap="round" stroke-linejoin="round"/>
<path d="M189.156 359H185.387L171.07 337.086V359H167.301V330.562H171.07L185.426 352.574V330.562H189.156V359ZM194.293 348.238C194.293 346.168 194.697 344.306 195.504 342.652C196.324 340.999 197.457 339.723 198.902 338.824C200.361 337.926 202.021 337.477 203.883 337.477C206.76 337.477 209.085 338.473 210.855 340.465C212.639 342.457 213.531 345.107 213.531 348.414V348.668C213.531 350.725 213.134 352.574 212.34 354.215C211.559 355.842 210.432 357.112 208.961 358.023C207.503 358.935 205.823 359.391 203.922 359.391C201.057 359.391 198.733 358.395 196.949 356.402C195.178 354.41 194.293 351.773 194.293 348.492V348.238ZM197.926 348.668C197.926 351.012 198.466 352.893 199.547 354.312C200.641 355.732 202.099 356.441 203.922 356.441C205.758 356.441 207.216 355.725 208.297 354.293C209.378 352.848 209.918 350.829 209.918 348.238C209.918 345.921 209.365 344.046 208.258 342.613C207.164 341.168 205.706 340.445 203.883 340.445C202.099 340.445 200.66 341.155 199.566 342.574C198.473 343.993 197.926 346.025 197.926 348.668ZM231.91 359H228.297V337.867H231.91V359ZM228.004 332.262C228.004 331.676 228.18 331.181 228.531 330.777C228.896 330.374 229.43 330.172 230.133 330.172C230.836 330.172 231.37 330.374 231.734 330.777C232.099 331.181 232.281 331.676 232.281 332.262C232.281 332.848 232.099 333.336 231.734 333.727C231.37 334.117 230.836 334.312 230.133 334.312C229.43 334.312 228.896 334.117 228.531 333.727C228.18 333.336 228.004 332.848 228.004 332.262ZM241.109 337.867L241.207 340.211C242.757 338.388 244.846 337.477 247.477 337.477C250.432 337.477 252.444 338.609 253.512 340.875C254.215 339.859 255.126 339.039 256.246 338.414C257.379 337.789 258.714 337.477 260.25 337.477C264.885 337.477 267.242 339.931 267.32 344.84V359H263.707V345.055C263.707 343.544 263.362 342.418 262.672 341.676C261.982 340.921 260.823 340.543 259.195 340.543C257.854 340.543 256.741 340.947 255.855 341.754C254.97 342.548 254.456 343.622 254.312 344.977V359H250.68V345.152C250.68 342.079 249.176 340.543 246.168 340.543C243.798 340.543 242.177 341.552 241.305 343.57V359H237.691V337.867H241.109ZM285.836 359C285.628 358.583 285.458 357.841 285.328 356.773C283.648 358.518 281.643 359.391 279.312 359.391C277.229 359.391 275.517 358.805 274.176 357.633C272.848 356.448 272.184 354.951 272.184 353.141C272.184 350.94 273.017 349.234 274.684 348.023C276.363 346.799 278.72 346.188 281.754 346.188H285.27V344.527C285.27 343.264 284.892 342.262 284.137 341.52C283.382 340.764 282.268 340.387 280.797 340.387C279.508 340.387 278.427 340.712 277.555 341.363C276.682 342.014 276.246 342.802 276.246 343.727H272.613C272.613 342.672 272.984 341.656 273.727 340.68C274.482 339.69 275.497 338.909 276.773 338.336C278.062 337.763 279.475 337.477 281.012 337.477C283.447 337.477 285.354 338.089 286.734 339.312C288.115 340.523 288.831 342.197 288.883 344.332V354.059C288.883 355.999 289.13 357.542 289.625 358.688V359H285.836ZM279.84 356.246C280.973 356.246 282.047 355.953 283.062 355.367C284.078 354.781 284.814 354.02 285.27 353.082V348.746H282.438C278.01 348.746 275.797 350.042 275.797 352.633C275.797 353.766 276.174 354.651 276.93 355.289C277.685 355.927 278.655 356.246 279.84 356.246ZM293.688 348.258C293.688 344.964 294.449 342.346 295.973 340.406C297.496 338.453 299.514 337.477 302.027 337.477C304.605 337.477 306.617 338.388 308.062 340.211L308.238 337.867H311.539V358.492C311.539 361.227 310.725 363.382 309.098 364.957C307.483 366.533 305.309 367.32 302.574 367.32C301.051 367.32 299.56 366.995 298.102 366.344C296.643 365.693 295.53 364.801 294.762 363.668L296.637 361.5C298.186 363.414 300.081 364.371 302.32 364.371C304.078 364.371 305.445 363.876 306.422 362.887C307.411 361.897 307.906 360.504 307.906 358.707V356.891C306.461 358.557 304.488 359.391 301.988 359.391C299.514 359.391 297.509 358.395 295.973 356.402C294.449 354.41 293.688 351.695 293.688 348.258ZM297.32 348.668C297.32 351.051 297.809 352.926 298.785 354.293C299.762 355.647 301.129 356.324 302.887 356.324C305.165 356.324 306.839 355.289 307.906 353.219V343.57C306.799 341.552 305.139 340.543 302.926 340.543C301.168 340.543 299.794 341.227 298.805 342.594C297.815 343.961 297.32 345.986 297.32 348.668ZM325.777 359.391C322.913 359.391 320.582 358.453 318.785 356.578C316.988 354.69 316.09 352.171 316.09 349.02V348.355C316.09 346.259 316.487 344.391 317.281 342.75C318.089 341.096 319.208 339.807 320.641 338.883C322.086 337.945 323.648 337.477 325.328 337.477C328.076 337.477 330.211 338.382 331.734 340.191C333.258 342.001 334.02 344.592 334.02 347.965V349.469H319.703C319.755 351.552 320.361 353.238 321.52 354.527C322.691 355.803 324.176 356.441 325.973 356.441C327.249 356.441 328.329 356.181 329.215 355.66C330.1 355.139 330.875 354.449 331.539 353.59L333.746 355.309C331.975 358.03 329.319 359.391 325.777 359.391ZM325.328 340.445C323.87 340.445 322.646 340.979 321.656 342.047C320.667 343.102 320.055 344.586 319.82 346.5H330.406V346.227C330.302 344.391 329.807 342.971 328.922 341.969C328.036 340.953 326.839 340.445 325.328 340.445Z" fill="black"/>
</svg>
